<?xml version="1.0" standalone="no"?>
<!DOCTYPE svg PUBLIC "-//W3C//DTD SVG 20010904//EN"
 "http://www.w3.org/TR/2001/REC-SVG-20010904/DTD/svg10.dtd">
<svg version="1.0"
  xmlns="http://www.w3.org/2000/svg" width="229.000000pt" height="214.000000pt" viewBox="0 0 229.000000 214.000000" preserveAspectRatio="xMidYMid meet">

  <g transform="translate(0.000000,214.000000) scale(0.100000,-0.100000)" fill="#000000" stroke="none">
    <path d="M510 2064 c-224 -59 -398 -241 -446 -466 -38 -175 11 -364 130 -510
42 -52 169 -148 214 -162 17 -6 18 -14 14 -79 -14 -219 69 -447 215 -593 225
-226 561 -278 853 -132 122 61 250 188 308 308 61 124 82 217 82 366 l0 122
67 38 c136 76 242 218 283 380 82 318 -119 646 -445 729 -195 49 -415 -13
-562 -160 l-73 -73 -72 73 c-80 78 -175 132 -283 160 -74 19 -212 18 -285 -1z
m284 -30 c124 -32 273 -135 339 -234 l16 -25 22 30 c48 64 137 142 205 177
323 169 701 12 820 -342 28 -85 26 -243 -5 -338 -45 -137 -143 -255 -268 -324
l-67 -37 -2 -133 c-1 -160 -19 -240 -75 -356 -77 -154 -219 -280 -390 -344
-72 -27 -101 -32 -204 -35 -144 -6 -223 10 -340 67 -146 71 -254 182 -325 335
-54 114 -65 170 -65 327 l0 137 -60 28 c-86 40 -210 166 -254 257 -38 79 -61
176 -61 257 0 75 32 196 72 272 68 129 221 246 364 281 80 19 203 19 278 0z"/>
    <path d="M516 2014 c-168 -41 -321 -180 -382 -349 -108 -298 63 -630 371 -721
80 -24 220 -24 300 0 93 27 172 75 242 143 96 95 81 128 -40 83 -29 -11 -75
-34 -102 -51 -272 -173 -619 -25 -677 289 -22 119 18 259 102 355 188 213 537
189 687 -48 16 -25 32 -41 40 -38 17 7 16 -5 -2 -37 -17 -30 -19 -95 -4 -139
9 -25 9 -39 0 -58 -10 -23 -10 -25 2 -15 8 7 17 38 20 70 2 33 12 72 20 88 11
21 12 35 5 47 -14 26 15 67 47 67 14 0 25 -4 25 -10 0 -5 -8 -10 -18 -10 -32
0 -43 -20 -28 -49 8 -14 18 -37 24 -51 47 -115 80 -165 98 -147 3 3 2 32 -2
64 -5 32 -10 48 -12 35 -3 -23 -4 -23 -34 7 -25 24 -29 35 -24 56 5 20 12 26
26 22 10 -3 21 0 24 7 3 6 3 -2 0 -19 -4 -27 -4 -28 6 -7 12 29 -15 88 -57
123 -16 13 -43 45 -60 70 -71 103 -199 193 -318 224 -72 18 -200 18 -279 -1z"/>
    <path d="M1506 2014 c-114 -28 -243 -116 -311 -214 l-28 -41 25 -27 c14 -15
32 -37 40 -49 14 -22 15 -22 54 34 49 72 126 134 201 164 47 19 77 23 158 23
119 0 187 -22 268 -88 108 -88 162 -201 162 -341 0 -164 -82 -297 -240 -390
-16 -10 -17 -16 -5 -65 8 -30 15 -57 16 -59 2 -2 32 13 68 33 118 66 212 177
258 307 32 92 32 256 0 351 -95 275 -382 431 -666 362z"/>
    <path d="M530 1872 c-113 -38 -200 -117 -253 -230 -28 -61 -31 -76 -31 -162 0
-111 21 -175 81 -254 37 -48 135 -125 160 -126 7 0 21 21 32 46 31 68 103 165
165 221 75 66 150 110 248 144 l83 28 7 58 c7 50 5 62 -17 99 -37 62 -126 139
-193 165 -79 30 -208 36 -282 11z m281 -44 c64 -29 123 -79 163 -137 24 -34
26 -44 19 -86 -8 -47 -9 -47 -63 -64 -116 -37 -244 -120 -321 -210 -40 -46
-112 -156 -122 -184 -6 -18 -49 8 -104 62 -203 200 -115 546 162 638 66 21
199 12 266 -19z"/>
    <path d="M1520 1871 c-100 -32 -193 -110 -239 -200 -25 -48 -26 -69 -6 -107
11 -21 26 -31 65 -41 182 -46 353 -189 444 -370 14 -29 30 -53 35 -53 21 0
123 85 156 130 171 233 62 562 -214 644 -70 21 -172 20 -241 -3z m281 -43
c265 -122 306 -476 76 -655 -23 -18 -45 -33 -48 -33 -4 0 -19 24 -34 53 -60
115 -186 241 -300 300 -22 11 -74 32 -115 47 -61 21 -77 31 -84 53 -25 71 105
210 237 253 68 22 200 13 268 -18z"/>
    <path d="M1184 1595 c-8 -19 2 -45 16 -45 5 0 10 14 10 30 0 31 -16 41 -26 15z"/>
    <path d="M1106 1572 c-14 -23 -17 -125 -6 -191 33 -199 194 -378 389 -435 30
-9 56 -16 58 -16 2 0 -6 18 -18 41 -25 51 -85 116 -151 166 -61 46 -122 135
-145 211 -9 31 -23 65 -31 74 -19 23 -62 108 -62 123 0 17 -27 38 -34 27z"/>
    <path d="M1262 1545 c0 -16 2 -22 5 -12 2 9 2 23 0 30 -3 6 -5 -1 -5 -18z"/>
    <path d="M928 1486 c-119 -42 -226 -119 -305 -219 -47 -60 -109 -174 -100
-184 3 -2 13 10 23 29 76 148 235 271 422 328 73 22 77 26 66 54 -8 21 -27 20
-106 -8z"/>
    <path d="M1265 1500 c-13 -21 15 -44 66 -57 79 -19 206 -85 268 -138 60 -51
124 -127 165 -195 36 -59 24 -14 -18 65 -42 81 -182 221 -263 263 -68 36 -166
72 -194 72 -10 0 -21 -4 -24 -10z"/>
    <path d="M923 1406 c-78 -29 -159 -77 -224 -135 -52 -45 -152 -178 -144 -191
8 -14 111 -20 170 -10 33 5 85 23 115 39 30 15 81 42 113 59 32 17 84 36 116
43 l58 11 -23 67 c-13 36 -24 78 -24 93 0 25 -3 27 -30 22 -23 -5 -30 -3 -30
10 0 21 -23 20 -97 -8z"/>
    <path d="M1256 1415 c-19 -14 -19 -17 -3 -69 21 -66 92 -165 139 -194 19 -12
58 -46 85 -75 261 -276 82 -735 -294 -755 -105 -6 -191 16 -271 68 -148 95
-230 273 -203 440 6 36 11 67 11 70 0 3 -26 5 -57 5 -32 0 -83 4 -114 8 -54 8
-57 7 -63 -15 -13 -52 -6 -225 14 -302 55 -216 229 -402 444 -473 70 -23 98
-27 206 -27 145 0 201 13 324 77 93 48 205 153 259 242 85 143 118 340 83 497
-51 231 -231 431 -445 498 -75 24 -90 24 -115 5z"/>
    <path d="M1132 1053 c3 -122 5 -138 21 -141 15 -3 17 8 17 118 0 67 -5 130
-10 141 -24 44 -31 16 -28 -118z"/>
    <path d="M937 977 c-15 -11 -9 -18 44 -61 34 -27 69 -49 78 -50 32 -2 15 27
-45 75 -51 41 -64 47 -77 36z"/>
    <path d="M1290 944 c-57 -45 -74 -74 -45 -74 14 0 54 28 129 91 4 4 0 11 -10
17 -15 7 -30 0 -74 -34z"/>
    <path d="M1090 913 c1 -18 19 -35 29 -28 9 5 9 10 0 21 -12 15 -29 19 -29 7z"/>
    <path d="M1181 906 c-9 -11 -8 -15 5 -20 22 -8 21 -9 27 14 6 23 -15 27 -32 6z"/>
    <path d="M1094 852 c-50 -40 -58 -104 -18 -151 67 -80 199 -18 180 85 -14 69
-110 109 -162 66z m114 -32 c47 -44 11 -142 -51 -142 -31 0 -65 26 -78 60 -10
26 4 71 28 90 25 19 76 15 101 -8z"/>
    <path d="M1112 808 c-7 -7 -12 -17 -12 -22 0 -6 5 -5 12 2 16 16 70 16 86 0 7
-7 12 -8 12 -2 0 31 -73 47 -98 22z"/>
    <path d="M1130 772 c-18 -14 -21 -25 -16 -45 8 -34 41 -44 67 -21 24 22 21 52
-7 71 -19 12 -24 11 -44 -5z"/>
    <path d="M1026 843 c-9 -9 -7 -33 3 -33 12 0 22 28 12 34 -5 3 -11 3 -15 -1z"/>
    <path d="M1260 836 c0 -15 18 -31 26 -23 7 7 -7 37 -17 37 -5 0 -9 -6 -9 -14z"/>
    <path d="M885 758 c-71 -16 -133 -33 -137 -37 -4 -3 -3 -12 1 -20 7 -11 30 -8
127 14 160 36 154 34 154 56 0 23 13 24 -145 -13z"/>
    <path d="M1280 771 c0 -13 8 -22 23 -26 12 -3 77 -18 145 -34 106 -24 124 -26
129 -14 9 22 -6 27 -145 58 -70 15 -133 30 -139 32 -8 3 -13 -3 -13 -16z"/>
    <path d="M1213 659 c-8 -8 2 -40 39 -118 56 -120 73 -145 84 -117 4 12 -12 58
-47 131 -30 63 -56 114 -59 114 -4 1 -11 -4 -17 -10z"/>
    <path d="M740 652 c-1 -29 54 -125 102 -177 35 -38 73 -66 126 -92 74 -37 79
-38 187 -38 106 0 113 1 180 34 89 44 162 116 205 204 18 37 30 70 27 73 -3 3
-13 -9 -23 -28 -27 -54 -80 -114 -131 -147 -27 -18 -49 -36 -49 -42 -1 -5 -2
-13 -3 -19 0 -5 -11 -14 -22 -21 -17 -9 -24 -8 -36 4 -12 12 -23 13 -52 5 -20
-6 -80 -8 -135 -5 -64 3 -105 1 -117 -6 -21 -13 -49 5 -49 32 0 9 -20 29 -45
44 -51 32 -118 105 -146 157 -10 19 -18 29 -19 22z"/>
    <path d="M1021 551 c-33 -67 -52 -115 -48 -125 4 -10 12 -14 18 -11 16 10 120
226 113 236 -14 24 -34 0 -83 -100z"/>
  </g>
</svg>
